<?xml version="1.0" encoding="utf-8"?>
<!-- Generator: Adobe Illustrator 22.1.0, SVG Export Plug-In . SVG Version: 6.00 Build 0)  -->
<svg version="1.1" id="Layer_1" xmlns="http://www.w3.org/2000/svg" xmlns:xlink="http://www.w3.org/1999/xlink" x="0px" y="0px"
	 viewBox="0 0 171 168" style="enable-background:new 0 0 171 168;" xml:space="preserve">
<style type="text/css">
	.st0{fill:#FFFFFF;}
</style>
<g>
	<g>
		<g>
			<path class="st0" d="M93.1,5c2.3,0.5,4.7,0.9,7,1.5c4.9,1.3,9,3.8,12.5,7.5c4.1,4.4,6.1,9.7,7.7,15.3c2.8,9.6,2.2,19.4,1.6,29.2
				c-0.1,2.5-0.4,4.9-0.7,7.4c-0.1,1.2-0.4,2.3-0.7,3.4c-0.3,1.4-0.1,2.5,0.8,3.8c1.6,2.1,2.6,4.7,3.9,7c3.9,7,6.9,14.3,8.4,22.2
				c0.3,1.5,0.3,3.1,0.5,4.7c4.2,0,8.3,0,12.4,0c1.2,0,1.6,0.3,1.9,1.5c1.8,7.9,3.6,15.7,5.5,23.5c2.3,9.3,4.6,18.7,7,28
				c0.3,1,0.7,2,1.1,3.1c-51,0-101.9,0-153,0c4.7-18.7,9.3-37.3,14-56.1c8.3,0,16.6,0,24.7,0c-0.2-2.3-0.6-4.6-0.4-6.8
				c0.3-4.4,2.2-8.4,4-12.4c1.6-3.6,3.7-7,5.4-10.5c0.4-0.8,0.6-1.7,0.6-2.6c-0.6-11-1.2-22.1-2-33.1c-0.3-5-0.4-9.9,1-14.8
				c1.6-6,4.9-11,9.6-14.8c5-4,10.9-6,17.3-6.6c0.5,0,1-0.2,1.5-0.3C87.5,5,90.3,5,93.1,5z M16,157.8c46.5,0,92.7,0,139.1,0
				c-0.3-0.9-0.7-1.7-0.9-2.4c-2.7-10.8-5.3-21.6-8-32.3c-0.9-3.6-1.7-7.2-2.6-10.9c-2.5,0-4.8,0.2-7.1,0c-2.4-0.2-3.8,0.3-4.9,2.8
				c-1.9,4.4-5.9,6.9-9.8,9.3c-0.6,0.4-1.4,0.4-2.3,0.6c-0.5,2.4-1,5-1.5,7.6c-0.3,0-0.5,0.1-0.7,0.1c-18.6,0-37.3,0-55.9,0
				c-1.3,0-1.6-0.9-1.8-1.8c-0.4-2.2-0.8-4.4-1.3-6.7c-0.3-1.4-0.5-2.8-1.6-4c-2.1-2.1-3.9-4.5-5.7-6.8c-0.6-0.8-1.1-1.1-2.1-1.1
				c-5.6,0.1-11.1,0-16.7,0c-1.6,0-3.3,0-5.1,0C23.5,127.4,19.8,142.5,16,157.8z M89.8,90.6c3.8-6.5,7.4-12.7,11-19
				c-0.7-0.3-1.3-0.7-2-0.9c-1.3-0.4-1.7-1.2-1.6-2.5c0.1-2,0.1-4.1,0-6.2c-0.1-1.2,0.3-1.7,1.5-2c4.6-1.4,8.6-3.8,11.9-7.3
				c1.2-1.2,2-2.7,3.1-4c2.6-3.2,3.5-7.1,4.1-11c-8.5-3.6-15-9.4-20.8-15.9c-0.9,1-1.7,2.4-2.9,3.3c-1.5,1-3.2,1.8-4.9,2.4
				c-5.8,2-11.8,3-17.9,3.7c-3,0.3-6,0.6-9.1,0.9c-0.4,6.8,0.9,12.8,5.1,18.1c3.6,4.6,8.1,7.8,13.6,9.6c0.3,0.1,0.8,0.5,0.8,0.8
				c0.1,3.2,0,6.5,0,9.6c-1.1,0.3-1.9,0.5-2.8,0.7C82.5,77.6,86.1,84,89.8,90.6z M57.1,98.4c1.1,5,2.2,9.8,3.2,14.6
				c1,4.9,1.9,9.8,2.7,14.7c0.2,1,0.6,1.2,1.5,1.2c3.1,0,6.2,0,9.3,0c13.3,0,26.5,0,39.8,0c1.2,0,1.7-0.3,1.9-1.5
				c0.7-4.2,1.5-8.4,2.3-12.6c1-5.5,2.1-10.9,3.1-16.4C99.8,98.4,78.6,98.4,57.1,98.4z M109,92.8c2.6-0.2,4.9-0.4,7.2-0.6
				c0.1-0.1,0.1-0.3,0.2-0.4c-2.1-1.6-4.1-3.2-6.4-5C109.7,89,109.4,90.8,109,92.8z M69.1,92.7c-0.3-1.1-0.6-1.9-0.9-3
				c-1.1,0.9-2,1.6-3,2.5c0.7,0.2,1.1,0.3,1.4,0.3C67.3,92.7,68.1,92.7,69.1,92.7z"/>
			<path class="st0" d="M109,92.8c0.3-2.1,0.6-3.8,1-6c2.3,1.8,4.4,3.4,6.4,5c-0.1,0.1-0.1,0.3-0.2,0.4
				C113.9,92.4,111.6,92.6,109,92.8z"/>
			<path class="st0" d="M69.1,92.7c-1,0-1.7-0.1-2.5-0.1c-0.4,0-0.8-0.2-1.4-0.3c1.1-0.9,2-1.6,3-2.5C68.5,90.8,68.7,91.6,69.1,92.7
				z"/>
			<path class="st0" d="M84.3,113.5c0.1-2.1,1.8-3.4,4-3.3c1.9,0.1,3.5,1.8,3.3,3.7c-0.1,1.9-1.9,3.5-3.7,3.3
				C85.7,117.1,84.2,115.6,84.3,113.5z"/>
		</g>
	</g>
	<rect x="81.1" y="80.3" class="st0" width="20.2" height="11"/>
</g>
</svg>
